0
SECTION
2
HEADER
9
$INSUNITS
70
4
9
$ACADVER
1
AC1014
9
$HANDSEED
5
FFFF
0
ENDSEC
0
SECTION
2
TABLES
0
TABLE
2
VPORT
5
8
100
AcDbSymbolTable
0
ENDTAB
0
TABLE
2
LTYPE
5
5
100
AcDbSymbolTable
0
LTYPE
5
14
100
AcDbSymbolTableRecord
100
AcDbLinetypeTableRecord
2
BYBLOCK
70
0
0
LTYPE
5
15
100
AcDbSymbolTableRecord
100
AcDbLinetypeTableRecord
2
BYLAYER
70
0
0
ENDTAB
0
TABLE
2
LAYER
5
2
100
AcDbSymbolTable
70
2
0
LAYER
5
50
100
AcDbSymbolTableRecord
100
AcDbLayerTableRecord
2
0
70
0
6
CONTINUOUS
0
ENDTAB
0
TABLE
2
STYLE
5
3
100
AcDbSymbolTable
70
1
0
STYLE
5
11
100
AcDbSymbolTableRecord
100
AcDbTextStyleTableRecord
2
STANDARD
70
0
0
ENDTAB
0
TABLE
2
VIEW
5
6
100
AcDbSymbolTable
70
0
0
ENDTAB
0
TABLE
2
UCS
5
7
100
AcDbSymbolTable
70
0
0
ENDTAB
0
TABLE
2
APPID
5
9
100
AcDbSymbolTable
70
2
0
APPID
5
12
100
AcDbSymbolTableRecord
100
AcDbRegAppTableRecord
2
ACAD
70
0
0
ENDTAB
0
TABLE
2
DIMSTYLE
5
A
100
AcDbSymbolTable
70
1
0
ENDTAB
0
TABLE
2
BLOCK_RECORD
5
1
100
AcDbSymbolTable
70
1
0
BLOCK_RECORD
5
1F
100
AcDbSymbolTableRecord
100
AcDbBlockTableRecord
2
*MODEL_SPACE
0
BLOCK_RECORD
5
1B
100
AcDbSymbolTableRecord
100
AcDbBlockTableRecord
2
*PAPER_SPACE
0
ENDTAB
0
ENDSEC
0
SECTION
2
BLOCKS
0
BLOCK
5
20
100
AcDbEntity
100
AcDbBlockBegin
2
*MODEL_SPACE
0
ENDBLK
5
21
100
AcDbEntity
100
AcDbBlockEnd
0
BLOCK
5
1C
100
AcDbEntity
100
AcDbBlockBegin
2
*PAPER_SPACE
0
ENDBLK
5
1D
100
AcDbEntity
100
AcDbBlockEnd
0
ENDSEC
0
SECTION
2
ENTITIES
0
LWPOLYLINE
5
100
100
AcDbEntity
8
0
100
AcDbPolyline
90
23
70
1
43
0.0
10
-175.34856571459886
20
-207.25431246176902
42
0.24237742808226076
10
-178.93532279000419
20
-207.99707731754819
42
0.082098061532470304
10
-183.05535099428937
20
-212.62704511844518
10
-198.64574943621966
20
-237.30964480480077
42
0.38407849780078596
10
-197.7394391608843
20
-242.58766382294647
42
-0.53451007031242104
10
-198.84477094903468
20
-256.67934771853118
42
0.39677770044733751
10
-200.48962801615062
20
-261.91183910223231
10
-144.63498237880222
20
-377.28117416364353
42
0.074390917126811784
10
-141.46307801083088
20
-381.92365070222729
42
0.55182260440854436
10
-134.81110083546747
20
-380.67480303247493
42
-0.69490863221428545
10
-118.8815422866854
20
-381.00201099188462
10
-118.5854930948925
20
-381.8506356378042
42
0.52349019309889777
10
-112.25052123211276
20
-383.60808027615417
42
0.078543088350472204
10
-108.3380668562841
20
-379.14833313793019
10
-51.948823870957845
20
-289.87331451620582
42
0.12674508394546646
10
-49.04583793429407
20
-280.84838487988907
42
0.17264927098767238
10
-49.794519911363551
20
-278.27255266211512
42
-0.18935137584143166
10
-51.335286907236323
20
-272.25145340334859
42
0.17264927098766777
10
-51.915894103076702
20
-269.63261175081425
42
0.12274905842299051
10
-58.53669576739054
20
-263.25849151642541
10
-157.51546035340482
20
-206.30524738218244
42
0.086294969101201754
10
-163.63076888186143
20
-204.07313824050601
42
0.2423774280822496
10
-167.13243677443788
20
-205.14777674672527
42
-0.2672899200227517
0
LWPOLYLINE
5
101
100
AcDbEntity
8
0
100
AcDbPolyline
90
23
70
1
43
0.0
10
-175.34856571459892
20
-207.25431246176908
42
0.24237742808225535
10
-178.93532279000419
20
-207.99707731754819
42
0.082098061532471081
10
-183.0553509942894
20
-212.62704511844521
10
-198.6457494362196
20
-237.30964480480077
42
0.38407849780078585
10
-197.73943916088433
20
-242.58766382294635
42
-0.5345100703124207
10
-198.84477094903468
20
-256.67934771853118
42
0.39677770044733418
10
-200.48962801615062
20
-261.91183910223225
10
-144.63498237880216
20
-377.28117416364353
42
0.074390917126811881
10
-141.46307801083086
20
-381.92365070222729
42
0.55182260440854702
10
-134.81110083546736
20
-380.6748030324751
42
-0.69490863221428467
10
-118.88154228668543
20
-381.00201099188467
10
-118.5854930948925
20
-381.85063563780426
42
0.52349019309888489
10
-112.25052123211279
20
-383.60808027615411
42
0.078543088350472925
10
-108.33806685628409
20
-379.14833313793008
10
-51.948823870957852
20
-289.87331451620582
42
0.12674508394546602
10
-49.04583793429407
20
-280.84838487988907
42
0.17264927098767313
10
-49.794519911363579
20
-278.27255266211517
42
-0.18935137584143016
10
-51.335286907236352
20
-272.25145340334859
42
0.1726492709876698
10
-51.91589410307671
20
-269.63261175081419
42
0.12274905842298962
10
-58.536695767390547
20
-263.25849151642547
10
-157.51546035340482
20
-206.30524738218242
42
0.086294969101201421
10
-163.63076888186146
20
-204.07313824050607
42
0.2423774280822531
10
-167.13243677443788
20
-205.14777674672541
42
-0.26728992002275043
0
LWPOLYLINE
5
102
100
AcDbEntity
8
0
100
AcDbPolyline
90
4
70
1
43
0.0
10
-169.55777466968249
20
-237.28233728657466
10
-165.44858387608375
20
-223.89897150261856
10
-151.58723855423892
20
-228.15491141170276
10
-155.6964255602748
20
-241.53827958760075
0
LWPOLYLINE
5
103
100
AcDbEntity
8
0
100
AcDbPolyline
90
4
70
1
43
0.0
10
-91.053174445169503
20
-280.29780931042075
10
-92.516570191420584
20
-294.22111642507707
10
-106.93714152191487
20
-292.7054595226752
10
-105.47374216864657
20
-278.78214972909961
0
LWPOLYLINE
5
104
100
AcDbEntity
8
0
100
AcDbPolyline
90
4
70
1
43
0.0
10
-92.069130465447614
20
-314.76650544440253
10
-77.648564399029297
20
-316.28216397924911
10
-79.111961092171086
20
-330.20546915099442
10
-93.532527158589431
20
-328.68980927122243
0
LWPOLYLINE
5
105
100
AcDbEntity
8
0
100
AcDbPolyline
90
4
70
1
43
0.0
10
-83.513449544552145
20
-285.85739710640041
10
-69.092881584352369
20
-287.37305952706885
10
-70.556277832137241
20
-301.29636611356398
10
-84.976846237693906
20
-299.78070362307125
0
LWPOLYLINE
5
106
100
AcDbEntity
8
0
100
AcDbPolyline
90
4
70
1
43
0.0
10
-115.61429672283944
20
-319.70050888997372
10
-114.15090097658833
20
-305.77720446516827
10
-99.730333016388613
20
-307.29286419598583
10
-101.19373260637957
20
-321.21617384006515
0
LWPOLYLINE
5
107
100
AcDbEntity
8
0
100
AcDbPolyline
90
4
70
1
43
0.0
10
-172.4254284277223
20
-247.16860785537889
10
-158.56407931831464
20
-251.42455553610688
10
-162.67327389947638
20
-264.80791892812101
10
-176.53461922132109
20
-260.55197632918589
0
LWPOLYLINE
5
108
100
AcDbEntity
8
0
100
AcDbPolyline
90
4
70
1
43
0.0
10
-130.54238425147707
20
-234.65754140612177
10
-134.65157838728189
20
-248.04090755781112
10
-148.51292415448358
20
-243.78495412964807
10
-144.40373191246013
20
-230.40158678198776
0
LWPOLYLINE
5
109
100
AcDbEntity
8
0
100
AcDbPolyline
90
4
70
1
43
0.0
10
-112.05668160666933
20
-263.40569682062016
10
-110.59328249012373
20
-249.48238418769722
10
-96.172715268180454
20
-250.99805131040992
10
-97.636112936301515
20
-264.92135699992684
0
LWPOLYLINE
5
110
100
AcDbEntity
8
0
100
AcDbPolyline
90
4
70
1
43
0.0
10
-113.47470213198602
20
-346.41922512321622
10
-112.01130254199501
20
-332.49591682406231
10
-97.5907374786444
20
-334.01158237213917
10
-99.054132278004801
20
-347.93488739493023
0
LWPOLYLINE
5
111
100
AcDbEntity
8
0
100
AcDbPolyline
90
4
70
1
43
0.0
10
-72.895454119590084
20
-258.04246265783013
10
-74.358851899050364
20
-271.96576765742827
10
-88.779418410825542
20
-270.45010636290652
10
-87.316022191129093
20
-256.52680223709382
0
LWPOLYLINE
5
112
100
AcDbEntity
8
0
100
AcDbPolyline
90
4
70
1
43
0.0
10
-141.4681681322929
20
-271.08734737367666
10
-155.32952013854973
20
-266.83139744065534
10
-151.22032644810176
20
-253.44802852929075
10
-137.3589773386941
20
-257.70398158972063
0
LWPOLYLINE
5
113
100
AcDbEntity
8
0
100
AcDbPolyline
90
4
70
1
43
0.0
10
-180.13512584704497
20
-249.10784449208893
10
-193.99647205960346
20
-244.85188830425071
10
-189.88728505356758
20
-231.46852012835268
10
-176.02593884100909
20
-235.72447093648913
0
CIRCLE
5
114
100
AcDbEntity
8
0
100
AcDbCircle
10
-173.07000961605581
20
-199.06540642336606
30
-3.5527136788005009e-14
40
2.5
210
3.1241337444011025e-17
220
-2.2204460492503111e-16
230
1
0
CIRCLE
5
115
100
AcDbEntity
8
0
100
AcDbCircle
10
-203.00000302493305
20
-249.26422490124588
30
0
40
2.5
210
2.9245223216075561e-17
220
-2.2204460492503114e-16
230
1
0
CIRCLE
5
116
100
AcDbEntity
8
0
100
AcDbCircle
10
-42.900291678676304
20
-273.3006700130959
30
-3.5527136788005009e-14
40
2.4999999999999916
210
3.8566672328061355e-18
220
-2.2204460492503128e-16
230
1
0
CIRCLE
5
117
100
AcDbEntity
8
0
100
AcDbCircle
10
-126.90719283251104
20
-383.80182050617111
30
-7.1054273576010019e-14
40
2.5000000000000178
210
4.695090247717063e-18
220
-2.2204460492503128e-16
230
1
0
LWPOLYLINE
5
118
100
AcDbEntity
8
0
100
AcDbPolyline
90
5
70
1
43
0.0
10
-33.243830767996229
20
-271.1205868310804
10
-175.25009279807159
20
-189.40894551268622
10
-213.05679332307992
20
-249.264224901246
10
-143.08069283251083
20
-393.80182050617151
10
-110.73361460950714
20
-393.80182050617128
0
ENDSEC
0
SECTION
2
OBJECTS
0
DICTIONARY
5
C
100
AcDbDictionary
3
ACAD_GROUP
350
D
3
ACAD_MLINESTYLE
350
17
0
DICTIONARY
5
D
100
AcDbDictionary
0
DICTIONARY
5
1A
330
C
100
AcDbDictionary
0
DICTIONARY
5
17
100
AcDbDictionary
0
ENDSEC
0
EOF
