0
SECTION
2
HEADER
9
$INSUNITS
70
4
9
$ACADVER
1
AC1014
9
$HANDSEED
5
FFFF
0
ENDSEC
0
SECTION
2
TABLES
0
TABLE
2
VPORT
5
8
100
AcDbSymbolTable
0
ENDTAB
0
TABLE
2
LTYPE
5
5
100
AcDbSymbolTable
0
LTYPE
5
14
100
AcDbSymbolTableRecord
100
AcDbLinetypeTableRecord
2
BYBLOCK
70
0
0
LTYPE
5
15
100
AcDbSymbolTableRecord
100
AcDbLinetypeTableRecord
2
BYLAYER
70
0
0
ENDTAB
0
TABLE
2
LAYER
5
2
100
AcDbSymbolTable
70
2
0
LAYER
5
50
100
AcDbSymbolTableRecord
100
AcDbLayerTableRecord
2
0
70
0
6
CONTINUOUS
0
ENDTAB
0
TABLE
2
STYLE
5
3
100
AcDbSymbolTable
70
1
0
STYLE
5
11
100
AcDbSymbolTableRecord
100
AcDbTextStyleTableRecord
2
STANDARD
70
0
0
ENDTAB
0
TABLE
2
VIEW
5
6
100
AcDbSymbolTable
70
0
0
ENDTAB
0
TABLE
2
UCS
5
7
100
AcDbSymbolTable
70
0
0
ENDTAB
0
TABLE
2
APPID
5
9
100
AcDbSymbolTable
70
2
0
APPID
5
12
100
AcDbSymbolTableRecord
100
AcDbRegAppTableRecord
2
ACAD
70
0
0
ENDTAB
0
TABLE
2
DIMSTYLE
5
A
100
AcDbSymbolTable
70
1
0
ENDTAB
0
TABLE
2
BLOCK_RECORD
5
1
100
AcDbSymbolTable
70
1
0
BLOCK_RECORD
5
1F
100
AcDbSymbolTableRecord
100
AcDbBlockTableRecord
2
*MODEL_SPACE
0
BLOCK_RECORD
5
1B
100
AcDbSymbolTableRecord
100
AcDbBlockTableRecord
2
*PAPER_SPACE
0
ENDTAB
0
ENDSEC
0
SECTION
2
BLOCKS
0
BLOCK
5
20
100
AcDbEntity
100
AcDbBlockBegin
2
*MODEL_SPACE
0
ENDBLK
5
21
100
AcDbEntity
100
AcDbBlockEnd
0
BLOCK
5
1C
100
AcDbEntity
100
AcDbBlockBegin
2
*PAPER_SPACE
0
ENDBLK
5
1D
100
AcDbEntity
100
AcDbBlockEnd
0
ENDSEC
0
SECTION
2
ENTITIES
0
LWPOLYLINE
5
100
100
AcDbEntity
8
0
100
AcDbPolyline
90
20
70
1
43
0.0
10
-167.63321056061815
20
305.43358528835438
10
-258.56391801185896
20
249.81946480115693
10
-258.89927788337695
20
249.60952650357157
42
0.38196683898931549
10
-260.3286859734045
20
244.47130416069317
42
-0.4301057102532585
10
-264.60633672227902
20
232.8957223267812
42
0.36277762490222343
10
-266.93085136715445
20
228.32328972987895
10
-246.75211886811056
20
140.44100162338424
42
0.095263714412906764
10
-243.85497294683958
20
133.87699786295624
42
0.46543233233717113
10
-237.76102189835203
20
133.30270104192383
42
-0.53263962258716668
10
-223.93924476629559
20
130.47827524117409
42
0.4654323323371663
10
-218.10852534791098
20
128.61581254783434
42
0.11313721820947967
10
-212.11716907467917
20
134.63076598122905
10
-136.6686327037859
20
255.47822718508914
42
0.39786383375741735
10
-137.75623750828314
20
260.86538829697821
42
-0.6405040739200667
10
-134.94905974684116
20
276.05018068515511
42
0.4075068739665591
10
-132.03489482649968
20
280.82231182931673
10
-138.71468486055593
20
309.91409112177894
42
0.32146700114337801
10
-142.21006224835048
20
312.99857049807065
42
-0.15120352099714485
10
-146.83717327015813
20
314.96087654899571
42
0.32336536850771075
10
-151.50780598373723
20
315.31524592214254
0
LWPOLYLINE
5
101
100
AcDbEntity
8
0
100
AcDbPolyline
90
20
70
1
43
0.0
10
-167.63321056061815
20
305.43358528835449
10
-258.56391801185896
20
249.81946480115698
10
-258.89927788337695
20
249.60952650357157
42
0.38196683898931522
10
-260.3286859734045
20
244.47130416069319
42
-0.4301057102532625
10
-264.60633672227902
20
232.89572232678123
42
0.36277762490222237
10
-266.9308513671545
20
228.32328972987895
10
-246.75211886811056
20
140.44100162338427
42
0.095263714412907208
10
-243.85497294683958
20
133.87699786295624
42
0.46543233233716813
10
-237.76102189835206
20
133.3027010419238
42
-0.5326396225871689
10
-223.93924476629559
20
130.47827524117406
42
0.46543233233716508
10
-218.10852534791098
20
128.61581254783431
42
0.11313721820947198
10
-212.1171690746792
20
134.63076598122899
10
-136.6686327037859
20
255.47822718508911
42
0.39786383375742063
10
-137.75623750828314
20
260.86538829697827
42
-0.64050407392006747
10
-134.94905974684116
20
276.05018068515511
42
0.40750687396655594
10
-132.03489482649968
20
280.82231182931667
10
-138.71468486055593
20
309.91409112177894
42
0.32146700114337529
10
-142.21006224835043
20
312.99857049807065
42
-0.15120352099713871
10
-146.83717327015813
20
314.96087654899577
42
0.32336536850770919
10
-151.50780598373723
20
315.31524592214254
0
ENDSEC
0
SECTION
2
OBJECTS
0
DICTIONARY
5
C
100
AcDbDictionary
3
ACAD_GROUP
350
D
3
ACAD_MLINESTYLE
350
17
0
DICTIONARY
5
D
100
AcDbDictionary
0
DICTIONARY
5
1A
330
C
100
AcDbDictionary
0
DICTIONARY
5
17
100
AcDbDictionary
0
ENDSEC
0
EOF
