0
SECTION
2
HEADER
9
$INSUNITS
70
4
9
$ACADVER
1
AC1014
9
$HANDSEED
5
FFFF
0
ENDSEC
0
SECTION
2
TABLES
0
TABLE
2
VPORT
5
8
100
AcDbSymbolTable
0
ENDTAB
0
TABLE
2
LTYPE
5
5
100
AcDbSymbolTable
0
LTYPE
5
14
100
AcDbSymbolTableRecord
100
AcDbLinetypeTableRecord
2
BYBLOCK
70
0
0
LTYPE
5
15
100
AcDbSymbolTableRecord
100
AcDbLinetypeTableRecord
2
BYLAYER
70
0
0
ENDTAB
0
TABLE
2
LAYER
5
2
100
AcDbSymbolTable
70
2
0
LAYER
5
50
100
AcDbSymbolTableRecord
100
AcDbLayerTableRecord
2
0
70
0
6
CONTINUOUS
0
ENDTAB
0
TABLE
2
STYLE
5
3
100
AcDbSymbolTable
70
1
0
STYLE
5
11
100
AcDbSymbolTableRecord
100
AcDbTextStyleTableRecord
2
STANDARD
70
0
0
ENDTAB
0
TABLE
2
VIEW
5
6
100
AcDbSymbolTable
70
0
0
ENDTAB
0
TABLE
2
UCS
5
7
100
AcDbSymbolTable
70
0
0
ENDTAB
0
TABLE
2
APPID
5
9
100
AcDbSymbolTable
70
2
0
APPID
5
12
100
AcDbSymbolTableRecord
100
AcDbRegAppTableRecord
2
ACAD
70
0
0
ENDTAB
0
TABLE
2
DIMSTYLE
5
A
100
AcDbSymbolTable
70
1
0
ENDTAB
0
TABLE
2
BLOCK_RECORD
5
1
100
AcDbSymbolTable
70
1
0
BLOCK_RECORD
5
1F
100
AcDbSymbolTableRecord
100
AcDbBlockTableRecord
2
*MODEL_SPACE
0
BLOCK_RECORD
5
1B
100
AcDbSymbolTableRecord
100
AcDbBlockTableRecord
2
*PAPER_SPACE
0
ENDTAB
0
ENDSEC
0
SECTION
2
BLOCKS
0
BLOCK
5
20
100
AcDbEntity
100
AcDbBlockBegin
2
*MODEL_SPACE
0
ENDBLK
5
21
100
AcDbEntity
100
AcDbBlockEnd
0
BLOCK
5
1C
100
AcDbEntity
100
AcDbBlockBegin
2
*PAPER_SPACE
0
ENDBLK
5
1D
100
AcDbEntity
100
AcDbBlockEnd
0
ENDSEC
0
SECTION
2
ENTITIES
0
LWPOLYLINE
5
100
100
AcDbEntity
8
0
100
AcDbPolyline
90
23
70
1
43
0.0
10
-175.34856571459886
20
-207.25431246176902
42
0.24237742808226076
10
-178.93532279000419
20
-207.99707731754819
42
0.082098061532470304
10
-183.05535099428937
20
-212.62704511844518
10
-198.64574943621966
20
-237.30964480480077
42
0.38407849780078596
10
-197.7394391608843
20
-242.58766382294647
42
-0.53451007031242104
10
-198.84477094903468
20
-256.67934771853118
42
0.39677770044733751
10
-200.48962801615062
20
-261.91183910223231
10
-144.63498237880222
20
-377.28117416364353
42
0.074390917126811784
10
-141.46307801083088
20
-381.92365070222729
42
0.55182260440854436
10
-134.81110083546747
20
-380.67480303247493
42
-0.69490863221428545
10
-118.8815422866854
20
-381.00201099188462
10
-118.5854930948925
20
-381.8506356378042
42
0.52349019309889777
10
-112.25052123211276
20
-383.60808027615417
42
0.078543088350472204
10
-108.3380668562841
20
-379.14833313793019
10
-51.948823870957845
20
-289.87331451620582
42
0.12674508394546646
10
-49.04583793429407
20
-280.84838487988907
42
0.17264927098767238
10
-49.794519911363551
20
-278.27255266211512
42
-0.18935137584143166
10
-51.335286907236323
20
-272.25145340334859
42
0.17264927098766777
10
-51.915894103076702
20
-269.63261175081425
42
0.12274905842299051
10
-58.53669576739054
20
-263.25849151642541
10
-157.51546035340482
20
-206.30524738218244
42
0.086294969101201754
10
-163.63076888186143
20
-204.07313824050601
42
0.2423774280822496
10
-167.13243677443788
20
-205.14777674672527
42
-0.2672899200227517
0
LWPOLYLINE
5
101
100
AcDbEntity
8
0
100
AcDbPolyline
90
23
70
1
43
0.0
10
-175.34856571459892
20
-207.25431246176908
42
0.24237742808225535
10
-178.93532279000419
20
-207.99707731754819
42
0.082098061532471081
10
-183.0553509942894
20
-212.62704511844521
10
-198.6457494362196
20
-237.30964480480077
42
0.38407849780078585
10
-197.73943916088433
20
-242.58766382294635
42
-0.5345100703124207
10
-198.84477094903468
20
-256.67934771853118
42
0.39677770044733418
10
-200.48962801615062
20
-261.91183910223225
10
-144.63498237880216
20
-377.28117416364353
42
0.074390917126811881
10
-141.46307801083086
20
-381.92365070222729
42
0.55182260440854702
10
-134.81110083546736
20
-380.6748030324751
42
-0.69490863221428467
10
-118.88154228668543
20
-381.00201099188467
10
-118.5854930948925
20
-381.85063563780426
42
0.52349019309888489
10
-112.25052123211279
20
-383.60808027615411
42
0.078543088350472925
10
-108.33806685628409
20
-379.14833313793008
10
-51.948823870957852
20
-289.87331451620582
42
0.12674508394546602
10
-49.04583793429407
20
-280.84838487988907
42
0.17264927098767313
10
-49.794519911363579
20
-278.27255266211517
42
-0.18935137584143016
10
-51.335286907236352
20
-272.25145340334859
42
0.1726492709876698
10
-51.91589410307671
20
-269.63261175081419
42
0.12274905842298962
10
-58.536695767390547
20
-263.25849151642547
10
-157.51546035340482
20
-206.30524738218242
42
0.086294969101201421
10
-163.63076888186146
20
-204.07313824050607
42
0.2423774280822531
10
-167.13243677443788
20
-205.14777674672541
42
-0.26728992002275043
0
ENDSEC
0
SECTION
2
OBJECTS
0
DICTIONARY
5
C
100
AcDbDictionary
3
ACAD_GROUP
350
D
3
ACAD_MLINESTYLE
350
17
0
DICTIONARY
5
D
100
AcDbDictionary
0
DICTIONARY
5
1A
330
C
100
AcDbDictionary
0
DICTIONARY
5
17
100
AcDbDictionary
0
ENDSEC
0
EOF
